<?xml version="1.0" encoding="UTF-8"?>
<svg width="223px" height="25px" viewBox="0 0 223 25" version="1.1" xmlns="http://www.w3.org/2000/svg" xmlns:xlink="http://www.w3.org/1999/xlink">
    <!-- Generator: Sketch 48.2 (47327) - http://www.bohemiancoding.com/sketch -->
    <title>export/assets/title_02_c</title>
    <desc>Created with Sketch.</desc>
    <defs>
        <path d="M218.26911,3.94036842 C216.234258,2.16136842 216.202605,0.348368421 216.202605,0.348368421 L111.273597,0.348368421 L6.34308134,0.348368421 C6.34308134,0.348368421 6.31142809,2.16136842 4.27506917,3.94036842 C2.2658416,5.69736842 0.3983,6.32636842 0.3983,6.32636842 L0.3983,17.8303684 C0.3983,17.8303684 3.18529308,19.0033684 4.63983516,20.2253684 C6.39583675,21.7013684 6.31142809,24.3463684 6.31142809,24.3463684 L111.273597,24.3463684 L216.234258,24.3463684 C216.234258,24.3463684 216.149849,21.7013684 217.905851,20.2253684 C219.360393,19.0033684 222.145879,17.8303684 222.145879,17.8303684 L222.145879,6.32636842 C222.145879,6.32636842 220.279845,5.69736842 218.26911,3.94036842" id="path-1"></path>
        <filter x="-0.7%" y="-6.3%" width="101.4%" height="112.5%" filterUnits="objectBoundingBox" id="filter-2">
            <feGaussianBlur stdDeviation="1.5" in="SourceAlpha" result="shadowBlurInner1"></feGaussianBlur>
            <feOffset dx="0" dy="0" in="shadowBlurInner1" result="shadowOffsetInner1"></feOffset>
            <feComposite in="shadowOffsetInner1" in2="SourceAlpha" operator="arithmetic" k2="-1" k3="1" result="shadowInnerInner1"></feComposite>
            <feColorMatrix values="0 0 0 0 0   0 0 0 0 0   0 0 0 0 0  0 0 0 0.5 0" type="matrix" in="shadowInnerInner1"></feColorMatrix>
        </filter>
    </defs>
    <g id="symbols" stroke="none" stroke-width="1" fill="none" fill-rule="evenodd">
        <g id="export/assets/title_02_c">
            <g id="Fill-21">
                <use fill="#B99253" fill-rule="evenodd" xlink:href="#path-1"></use>
                <use fill="black" fill-opacity="1" filter="url(#filter-2)" xlink:href="#path-1"></use>
            </g>
        </g>
    </g>
</svg>