<?xml version="1.0" encoding="UTF-8"?>
<svg width="48px" height="37px" viewBox="0 0 48 37" version="1.1" xmlns="http://www.w3.org/2000/svg" xmlns:xlink="http://www.w3.org/1999/xlink">
    <!-- Generator: Sketch 48.2 (47327) - http://www.bohemiancoding.com/sketch -->
    <title>export/assets/title_02_a</title>
    <desc>Created with Sketch.</desc>
    <defs>
        <path d="M27.7421,0.0926 C28.4101,1.2686 32.7591,8.4556 40.9821,11.9986 C41.0031,12.0076 41.0251,11.9976 41.0261,11.9766 C41.0361,11.3336 41.2681,3.5306 46.9411,3.5306 L41.0251,3.5306 C32.2411,3.5306 28.5161,0.6966 27.7881,0.0566 C27.7621,0.0326 27.7241,0.0636 27.7421,0.0926" id="path-1"></path>
        <filter x="-7.8%" y="-12.5%" width="115.6%" height="125.1%" filterUnits="objectBoundingBox" id="filter-2">
            <feGaussianBlur stdDeviation="1.5" in="SourceAlpha" result="shadowBlurInner1"></feGaussianBlur>
            <feOffset dx="0" dy="0" in="shadowBlurInner1" result="shadowOffsetInner1"></feOffset>
            <feComposite in="shadowOffsetInner1" in2="SourceAlpha" operator="arithmetic" k2="-1" k3="1" result="shadowInnerInner1"></feComposite>
            <feColorMatrix values="0 0 0 0 0   0 0 0 0 0   0 0 0 0 0  0 0 0 0.5 0" type="matrix" in="shadowInnerInner1"></feColorMatrix>
        </filter>
        <path d="M21.165,4.3113 C21.758,5.3983 25.976,12.5873 35.158,15.1103 C35.183,15.1173 35.181,15.1503 35.156,15.1463 C33.183,14.8093 25.495,13.8153 22.26,18.0483 C22.254,18.0563 22.254,18.0673 22.261,18.0753 C22.489,18.3053 26.024,21.6803 35.501,19.3783 C35.523,19.3733 35.54,19.3993 35.521,19.4113 C34.354,20.1243 23.622,26.7843 21.125,31.8823 C21.116,31.9013 21.09,31.8963 21.09,31.8743 C21.086,31.1893 21.246,26.0543 26.839,22.4603 C26.853,22.4513 26.855,22.4293 26.838,22.4253 C26.278,22.3023 20.062,20.9773 19.291,18.0613 C19.291,18.0613 19.502,15.0983 26.316,13.4443 C26.333,13.4403 26.34,13.4183 26.325,13.4103 C25.933,13.1763 22.71,11.0843 21.128,4.3293 C21.122,4.3063 21.154,4.2903 21.165,4.3113" id="path-3"></path>
        <filter x="-9.2%" y="-5.4%" width="118.5%" height="110.9%" filterUnits="objectBoundingBox" id="filter-4">
            <feGaussianBlur stdDeviation="1.5" in="SourceAlpha" result="shadowBlurInner1"></feGaussianBlur>
            <feOffset dx="0" dy="0" in="shadowBlurInner1" result="shadowOffsetInner1"></feOffset>
            <feComposite in="shadowOffsetInner1" in2="SourceAlpha" operator="arithmetic" k2="-1" k3="1" result="shadowInnerInner1"></feComposite>
            <feColorMatrix values="0 0 0 0 0   0 0 0 0 0   0 0 0 0 0  0 0 0 0.5 0" type="matrix" in="shadowInnerInner1"></feColorMatrix>
        </filter>
        <path d="M17.748,18.0975 C18.391,14.6605 23.921,12.9175 23.921,12.9175 C22.249,11.3745 18.519,7.5165 10.546,9.1885 C0.41,11.3135 0,18.0975 0,18.0975 C0,18.0975 0.41,24.8815 10.546,27.0075 C18.519,28.6795 22.249,24.8215 23.921,23.2775 C23.921,23.2775 18.391,21.5355 17.748,18.0975" id="path-5"></path>
        <filter x="-6.3%" y="-8.0%" width="112.5%" height="116.1%" filterUnits="objectBoundingBox" id="filter-6">
            <feGaussianBlur stdDeviation="1.5" in="SourceAlpha" result="shadowBlurInner1"></feGaussianBlur>
            <feOffset dx="0" dy="0" in="shadowBlurInner1" result="shadowOffsetInner1"></feOffset>
            <feComposite in="shadowOffsetInner1" in2="SourceAlpha" operator="arithmetic" k2="-1" k3="1" result="shadowInnerInner1"></feComposite>
            <feColorMatrix values="0 0 0 0 0   0 0 0 0 0   0 0 0 0 0  0 0 0 0.5 0" type="matrix" in="shadowInnerInner1"></feColorMatrix>
        </filter>
        <path d="M27.9286,35.9549 C28.5976,34.7799 32.9456,27.5919 41.1696,24.0489 C41.1906,24.0399 41.2126,24.0509 41.2136,24.0719 C41.2226,24.7139 41.4556,32.5179 47.1286,32.5179 L41.2126,32.5179 C32.4276,32.5179 28.7036,35.3519 27.9746,35.9919 C27.9496,36.0149 27.9116,35.9849 27.9286,35.9549" id="path-7"></path>
        <filter x="-7.8%" y="-12.5%" width="115.6%" height="125.1%" filterUnits="objectBoundingBox" id="filter-8">
            <feGaussianBlur stdDeviation="1.5" in="SourceAlpha" result="shadowBlurInner1"></feGaussianBlur>
            <feOffset dx="0" dy="0" in="shadowBlurInner1" result="shadowOffsetInner1"></feOffset>
            <feComposite in="shadowOffsetInner1" in2="SourceAlpha" operator="arithmetic" k2="-1" k3="1" result="shadowInnerInner1"></feComposite>
            <feColorMatrix values="0 0 0 0 0   0 0 0 0 0   0 0 0 0 0  0 0 0 0.5 0" type="matrix" in="shadowInnerInner1"></feColorMatrix>
        </filter>
    </defs>
    <g id="symbols" stroke="none" stroke-width="1" fill="none" fill-rule="evenodd">
        <g id="export/assets/title_02_a">
            <g id="Group-2" transform="translate(0.000000, 0.315789)">
                <g id="Fill-3">
                    <use fill="#B99253" fill-rule="evenodd" xlink:href="#path-1"></use>
                    <use fill="black" fill-opacity="1" filter="url(#filter-2)" xlink:href="#path-1"></use>
                </g>
                <g id="Fill-5">
                    <use fill="#B99253" fill-rule="evenodd" xlink:href="#path-3"></use>
                    <use fill="black" fill-opacity="1" filter="url(#filter-4)" xlink:href="#path-3"></use>
                </g>
                <g id="Fill-7">
                    <use fill="#B99253" fill-rule="evenodd" xlink:href="#path-5"></use>
                    <use fill="black" fill-opacity="1" filter="url(#filter-6)" xlink:href="#path-5"></use>
                </g>
                <g id="Fill-12">
                    <use fill="#B99253" fill-rule="evenodd" xlink:href="#path-7"></use>
                    <use fill="black" fill-opacity="1" filter="url(#filter-8)" xlink:href="#path-7"></use>
                </g>
            </g>
        </g>
    </g>
</svg>