<?xml version="1.0" encoding="utf-8"?>
<!-- Generator: Adobe Illustrator 22.1.0, SVG Export Plug-In . SVG Version: 6.00 Build 0)  -->
<svg version="1.1" id="Слой_1" xmlns="http://www.w3.org/2000/svg" xmlns:xlink="http://www.w3.org/1999/xlink" x="0px" y="0px"
	 viewBox="0 0 199.8 86.6" style="enable-background:new 0 0 199.8 86.6;" xml:space="preserve">
<style type="text/css">
	.st0{fill:#EFF1C0;}
	.st1{enable-background:new    ;}
</style>
<g>
	<g>
		<path class="st0" d="M43.4,0C19.4,0,0,19.4,0,43.3s19.4,43.4,43.4,43.4s43.4-19.4,43.4-43.4S67.3,0,43.4,0z M19.4,14.9
			c0.8-2.1,3.1-3.6,5.9-2.5c9-13.4,18.5,0.5,11.5,9.8c3.9,4.3,3.6,10.2-1,14c3.8,3.2,5.1,8.8,2.4,13c-1.7-0.7-3.8-0.8-5.5,0
			c-1.3-0.9-2.9-1.3-4.4-0.9c-1.2-4.3-4.7-6.2-9-5.2c0-1-0.2-2.1-0.8-3c1.7-0.1,3.3-0.8,4.5-2.1c1.7,2.2,4.7,2.8,7.3,1.2
			c0.7,1.4,1.8,2.5,3.2,3.1c0.2-0.6,0.5-1.2,0.7-1.7c-3-1.3-3.9-5.9-0.7-8.1c-0.3-0.6-0.7-1-1-1.6c-2.1,1.4-3.1,3.9-2.8,6.3
			c-2,1.6-4.3,1.2-5.5-0.7c0.6-1.2,0.8-2.5,0.5-3.8c2.8-1.7,3-5.1,1.8-7.6c3.8-0.1,6.3-2.5,6.6-6.2c1.8-0.6,3.2-2.2,3.7-4
			c-0.6-0.1-1.2-0.3-1.8-0.5c-0.7,3.2-4.7,3.7-7,1c-0.5,0.5-0.9,0.8-1.4,1.3c1.2,1.4,2.9,2.3,4.7,2.4C30.1,27.6,16.6,21.6,19.4,14.9
			z M14.9,28.3c-2.8-2.9-2.8-9,2.5-9.6c1.3,3.3,3.6,5,6.5,6.1c2.7,2.1,1.5,6.9-2.1,6.8c2.1,2.3,1.4,4.4-0.8,5.8
			c-4.7,2.8-6-1.5-11.5,1.4C5.9,34.5,9.7,28.2,14.9,28.3z M29.8,74c-5.5,2.2-8.9-0.9-8.1-6.6c-5.8,1.6-9.3-2.9-7.6-8.5
			c-5.3-1.7-7.4-6.5-7.2-11.7c0.7-10.7,13.6-9.6,9.8-1.2c4.6-2.1,8.5-1.6,9.7,3.2c-1.4,1-2.2,2.9-2,4.6c-5.1,3.5-3.6,10.7,3.1,11.4
			c0.3,2.4,2.2,4.5,4.4,5.3c0.2-0.6,0.5-1.2,0.7-1.7c-4.2-1.7-4.7-7.2,0.2-8.5c-0.1-0.6-0.2-1.3-0.5-1.8c-2.4,0.6-4.3,2.2-5,4.8
			c-5.2-0.7-5.8-6-0.9-8.5c-1.2-4.8,2.7-5.9,5.8-3c5.4-4.6,11.9,4.6,5.5,11.4C45.5,71.4,37,81.3,29.8,74z M71.8,28.3
			c5.2-0.1,9,6.2,5.4,10.4C75.9,38,74.1,37,70.7,38c-3.8,1.2-9.7-2.2-5.9-6.5c-3.6,0.1-4.7-4.6-2.1-6.8c2.9-1,5.2-2.5,6.5-6.1
			C74.5,19.3,74.5,25.3,71.8,28.3z M49.8,22.3C43.7,14,50.3,4,56.8,7.5c2,1.2,3.5,3,4.7,4.8c2.7-1.2,5.1,0.5,5.9,2.5
			c2.8,6.7-10.8,12.7-11.8,4.3c1.8-0.1,3.6-1,4.7-2.4c-0.5-0.5-0.9-0.8-1.4-1.3c-2.3,2.5-6.3,2.2-7-1c-0.6,0.1-1.3,0.2-1.8,0.5
			c0.5,1.8,1.8,3.5,3.7,4c0.1,3.8,2.7,6.1,6.6,6.2c-1.2,2.5-0.9,5.9,1.8,7.6c-0.3,1.3-0.1,2.7,0.5,3.8c-1.3,1.8-3.6,2.4-5.5,0.7
			c0.3-2.4-0.7-5-2.8-6.3c-0.3,0.6-0.7,1-1,1.6c3.2,2.2,2.3,6.8-0.7,8.1c0.2,0.6,0.5,1.2,0.7,1.7c1.5-0.6,2.7-1.7,3.2-3.1
			c2.5,1.6,5.5,1,7.3-1.2c1.2,1.2,2.9,1.8,4.5,2.1c-0.6,0.9-0.8,2-0.8,3c-4.3-0.9-7.8,1-9,5.2c-1.5-0.3-3.1,0-4.4,0.9
			c-1.7-0.8-3.8-0.8-5.5,0c-2.8-4.3-1.4-9.9,2.4-13C46.3,32.3,45.9,26.5,49.8,22.3z M72.6,58.8c1.7,5.7-1.8,10.3-7.6,8.5
			c0.7,5.7-2.7,8.8-8.1,6.6c-7.3,7.4-15.7-2.7-8.2-10.7c-6.3-6.8,0.1-16,5.5-11.4c3-2.8,6.9-1.8,5.8,3c4.8,2.5,4.3,7.8-0.9,8.5
			c-0.6-2.7-2.4-4.3-5-4.8c-0.1,0.6-0.2,1.3-0.5,1.8c5,1.3,4.4,6.8,0.2,8.5c0.2,0.6,0.5,1.2,0.7,1.7c2.3-0.9,4-2.9,4.4-5.3
			c6.7-0.7,8.2-8,3.1-11.4c0.2-1.7-0.6-3.6-2-4.6c1.2-4.8,5.1-5.3,9.7-3.2c-3-6.8,4.3-8.1,7.4-5C81.1,44.8,81.1,56.1,72.6,58.8z"/>
		<path class="st0" d="M43.4,87.2c-24.2,0-43.9-19.7-43.9-43.9c0-24.2,19.7-43.8,43.9-43.8s43.9,19.6,43.9,43.8
			C87.3,67.5,67.6,87.2,43.4,87.2z M43.4,0.5C19.7,0.5,0.5,19.7,0.5,43.3c0,23.7,19.2,42.9,42.9,42.9S86.3,67,86.3,43.3
			C86.3,19.7,67.1,0.5,43.4,0.5z M35.1,77.1c-1.7,0-3.6-0.7-5.4-2.5c-2.6,1-4.9,0.8-6.5-0.4c-1.6-1.2-2.3-3.4-2.1-6.1
			c-2.5,0.5-4.7-0.1-6.2-1.6c-1.7-1.7-2.2-4.4-1.5-7.2c-4.7-1.7-7.3-6.1-7.1-12c0.3-3.9,2.2-6.9,5.1-7.9c2-0.7,4.1-0.3,5.3,1
			c0.7,0.7,1.5,2.2,0.7,4.8c2.5-0.9,4.6-1,6.3-0.2c1.5,0.7,2.5,2.1,3,4.2l0.1,0.3l-0.3,0.2c-1.2,0.9-2,2.6-1.8,4.1l0,0.3l-0.2,0.2
			c-2.2,1.5-3.3,3.9-2.7,6.2c0.6,2.4,2.7,3.9,5.5,4.2l0.4,0l0,0.4c0.2,2,1.7,3.8,3.6,4.7c0.1-0.2,0.2-0.5,0.3-0.7c0,0,0-0.1,0.1-0.1
			c-2-1-3.3-3-3.2-5c0.1-1.9,1.4-3.4,3.4-4.1c-0.1-0.3-0.1-0.6-0.2-0.9c-2.2,0.7-3.7,2.2-4.2,4.3l-0.1,0.4l-0.4-0.1
			c-2.5-0.3-4.3-1.8-4.6-3.8c-0.3-2,0.9-4.2,3.2-5.5c-0.4-2.1,0.1-3.7,1.3-4.4c1.4-0.8,3.4-0.4,5.1,1c2.2-1.6,4.8-1.4,6.7,0.6
			c2.4,2.6,3.1,7.4-0.5,11.5c4,4.5,3.5,9.6,0.8,12.2C38.1,76.4,36.7,77.1,35.1,77.1z M29.9,73.4l0.2,0.2c3.2,3.2,6.5,2.8,8.3,1
			c2.4-2.3,2.8-7-1.2-11.1L37,63.2l0.3-0.3c3.5-3.7,3-8.1,0.8-10.4c-1.3-1.3-3.4-2.1-5.6-0.2l-0.3,0.3l-0.3-0.3
			c-1.4-1.3-3.1-1.8-4.2-1.2c-0.9,0.6-1.2,1.9-0.8,3.7l0.1,0.4l-0.4,0.2c-2.1,1.1-3.3,2.9-3,4.6c0.2,1.5,1.5,2.5,3.4,2.9
			c0.8-2.4,2.6-4.1,5.2-4.7l0.4-0.1l0.2,0.3c0.3,0.5,0.4,1.2,0.5,1.9l0.1,0.6l-0.4,0.1c-1.9,0.5-3,1.7-3.1,3.3
			c-0.1,1.8,1.1,3.5,3,4.2l0.5,0.2L33.1,69c-0.1,0.2-0.2,0.4-0.3,0.6c-0.2,0.3-0.3,0.7-0.4,1.1l-0.2,0.5L31.7,71
			c-2.3-0.9-4.2-3-4.7-5.3c-3.1-0.4-5.3-2.3-6-4.9c-0.7-2.7,0.4-5.4,2.8-7.1c-0.1-1.7,0.7-3.5,2-4.5c-0.5-1.6-1.3-2.7-2.4-3.3
			c-1.6-0.8-3.8-0.5-6.5,0.7L15.7,47l0.5-1.2c0.9-2,0.9-3.7-0.1-4.8c-0.9-1-2.6-1.3-4.3-0.7c-2.6,0.9-4.2,3.5-4.5,7
			c-0.2,5.6,2.3,9.7,6.9,11.2l0.5,0.2L14.6,59c-0.8,2.7-0.4,5.2,1.1,6.7c1.4,1.4,3.5,1.8,5.9,1.2l0.7-0.2l-0.1,0.8
			c-0.4,2.7,0.2,4.8,1.6,5.9c1.4,1.1,3.4,1.1,5.8,0.2L29.9,73.4z M51.6,77c-1.6,0-3.1-0.7-4.2-1.7c-2.7-2.6-3.3-7.6,0.6-12.1
			c-3.4-4-2.9-8.9-0.4-11.5c1.9-2,4.4-2.2,6.6-0.5c1.7-1.4,3.6-1.8,5-1c1.3,0.7,1.8,2.3,1.4,4.4c2.3,1.3,3.6,3.5,3.2,5.5
			c-0.3,2-2.1,3.4-4.6,3.7l-0.5,0.1l-0.1-0.4c-0.5-2.2-1.9-3.7-4.1-4.3c-0.1,0.3-0.1,0.6-0.2,0.9c2,0.7,3.2,2.2,3.4,4
			c0.1,2.1-1.1,4-3.2,5.1c0.1,0.2,0.2,0.5,0.3,0.7c0,0,0,0.1,0,0.1c1.9-0.9,3.3-2.7,3.6-4.7l0.1-0.4l0.4,0c2.8-0.3,5-1.9,5.5-4.3
			c0.6-2.3-0.4-4.7-2.7-6.2L61.5,54l0-0.3c0.2-1.5-0.6-3.2-1.8-4.1l-0.3-0.2l0.1-0.3c0.5-2.1,1.5-3.5,3-4.2c1.6-0.8,3.8-0.7,6.3,0.2
			c-1-3.3,0.6-4.8,1.3-5.4c2.1-1.4,5.4-1,7.3,0.9c2.3,2.2,3.3,6.7,2.4,10.7c-0.9,3.8-3.2,6.5-6.6,7.8c0.8,3,0.2,5.7-1.6,7.4
			c-1.5,1.5-3.7,2-6.1,1.4c0.2,2.7-0.6,4.9-2.2,6.1c-1.6,1.2-3.8,1.4-6.4,0.4C55.2,76.3,53.3,77,51.6,77z M51.2,51.1
			c-1.1,0-2.1,0.6-2.9,1.3c-2.2,2.3-2.6,6.9,0.8,10.5l0.3,0.3l-0.3,0.3c-3.8,4.1-3.3,8.7-0.9,11c1.8,1.7,5,2.4,8.4-1l0.2-0.2
			l0.3,0.1c2.3,0.9,4.3,0.9,5.7-0.1c1.4-1.1,2.1-3.2,1.7-5.9l-0.1-0.8l0.7,0.2c2.4,0.7,4.4,0.4,5.8-1c1.6-1.5,2-4.1,1.2-6.9L72,58.5
			l0.5-0.1c4.5-1.4,5.9-5.1,6.4-7.2c0.8-3.7,0-7.8-2.1-9.7c-1.6-1.6-4.4-1.9-6-0.8c-1.4,1-1.6,2.8-0.6,5.2l0.5,1.2l-1.2-0.5
			c-2.7-1.2-4.9-1.5-6.5-0.7c-1.1,0.6-2,1.6-2.4,3.3c1.3,1.1,2,2.9,2,4.5c2.4,1.7,3.5,4.5,2.8,7.1c-0.7,2.7-3,4.6-6,5
			C58.8,68,57,70,54.7,71l-0.5,0.2L54,70.7c-0.1-0.2-0.2-0.4-0.2-0.6c-0.2-0.4-0.3-0.8-0.5-1.2l-0.1-0.4l0.4-0.2
			c1.9-0.8,3.1-2.5,3-4.3c-0.1-1.6-1.3-2.8-3.2-3.3l-0.6-0.2l0.3-0.6c0.2-0.4,0.3-1,0.4-1.5l0.1-0.6l0.5,0.1
			c2.7,0.5,4.6,2.2,5.3,4.7c1.8-0.4,3-1.4,3.3-2.8c0.3-1.7-0.9-3.5-3-4.6l-0.3-0.2l0.1-0.4c0.4-1.8,0.1-3.1-0.8-3.7
			c-1.1-0.6-2.7-0.2-4.1,1.1l-0.3,0.3l-0.3-0.3C52.9,51.4,52,51.1,51.2,51.1z M48.5,49.8l-0.2-0.4c-2.7-4.2-1.8-9.8,2-13.3
			c-2.2-1.9-3.5-4.4-3.7-6.9c-0.2-2.5,0.7-4.9,2.5-7c-3.6-5.2-2.5-10.6,0.1-13.6c2.1-2.4,5.1-3.1,7.8-1.6c1.7,1,3.2,2.5,4.7,4.6
			c1.1-0.4,2.3-0.4,3.3,0.1c1.3,0.5,2.3,1.6,2.8,2.9c0.9,2,0.4,4.3-1.3,6.1c-2.2,2.4-5.7,3.5-8.2,2.7c-1.8-0.6-2.9-2.1-3.2-4.3
			L55,18.6l0.5,0c1.5-0.1,3-0.8,4-1.9c-0.1-0.1-0.2-0.2-0.3-0.3c-0.1-0.1-0.2-0.2-0.4-0.3c-1.4,1.2-3.2,1.7-4.8,1.3
			c-1.3-0.3-2.2-1.2-2.6-2.4c-0.3,0.1-0.6,0.1-0.8,0.2c0.5,1.3,1.5,2.8,3.2,3.2l0.4,0.1l0,0.4c0.1,3.5,2.4,5.6,6.1,5.7l0.8,0
			l-0.3,0.7c-1.1,2.3-0.9,5.4,1.6,7l0.3,0.2l-0.1,0.3c-0.3,1.2-0.1,2.4,0.5,3.4l0.2,0.3l-0.2,0.3c-0.8,1.1-1.9,1.8-3.1,1.9
			c-1.1,0.1-2.2-0.3-3.2-1.1l-0.2-0.2l0-0.3c0.3-2.2-0.6-4.3-2.1-5.5c-0.1,0.1-0.2,0.2-0.3,0.4c-0.1,0.1-0.2,0.3-0.3,0.4
			c1.3,1.1,2,2.7,1.8,4.4c-0.2,1.7-1.1,3.3-2.6,4.1c0.1,0.2,0.2,0.5,0.3,0.7c0,0,0,0.1,0,0.1c1.2-0.6,2.1-1.5,2.5-2.6l0.2-0.6
			l0.5,0.3c2.2,1.4,5,1,6.6-1.1l0.4-0.4l0.4,0.4c1,1,2.4,1.6,4.2,2l0.7,0.1l-0.4,0.6c-0.6,0.9-0.7,2-0.7,2.7v0.6l-0.6-0.1
			c-4.1-0.9-7.3,1-8.4,4.8L59,48.9l-0.5-0.1c-1.4-0.3-2.9,0-4,0.8l-0.2,0.2L54,49.7c-1.6-0.7-3.5-0.7-5.1,0L48.5,49.8z M51.5,48.1
			c0.9,0,1.9,0.2,2.7,0.5c1.2-0.8,2.7-1.1,4.1-0.9c1.3-3.9,4.6-5.9,8.9-5.2c0-0.6,0.2-1.4,0.5-2.1c-1.5-0.4-2.8-0.9-3.7-1.7
			c-1.9,2-4.7,2.5-7.1,1.2c-0.6,1.2-1.8,2.3-3.3,2.8l-0.5,0.2l-0.2-0.5c-0.1-0.2-0.2-0.4-0.2-0.6c-0.2-0.4-0.3-0.8-0.5-1.2l-0.1-0.4
			l0.4-0.2c1.3-0.6,2.2-1.9,2.4-3.4c0.1-1.5-0.5-2.9-1.8-3.8l-0.4-0.2l0.2-0.4c0.2-0.3,0.4-0.6,0.5-0.9c0.2-0.2,0.3-0.5,0.5-0.7
			l0.2-0.5l0.5,0.3c2.1,1.3,3.3,3.9,3.1,6.5c0.7,0.5,1.4,0.8,2.2,0.7c0.8-0.1,1.6-0.5,2.2-1.2c-0.5-1.1-0.7-2.3-0.5-3.5
			c-2.5-1.8-2.9-4.9-2-7.4c-3.7-0.4-6.1-2.7-6.4-6.3c-1.7-0.6-3.1-2.2-3.7-4.2l-0.1-0.4l0.3-0.2c0.5-0.3,1.2-0.4,1.9-0.5l0.6-0.1
			l0.1,0.5c0.2,1.1,1,1.9,2,2.2c1.4,0.4,3-0.2,4.1-1.4l0.4-0.4l0.4,0.4c0.2,0.2,0.5,0.4,0.7,0.6c0.2,0.2,0.5,0.4,0.7,0.7l0.3,0.3
			L60.7,17c-1.1,1.3-2.8,2.3-4.5,2.5c0.3,1.5,1.1,2.5,2.4,3c2.1,0.7,5.3-0.4,7.2-2.4c0.8-0.9,2.1-2.8,1.2-5.1
			c-0.4-1-1.3-1.9-2.3-2.3c-0.9-0.4-2-0.4-2.9,0.1l-0.4,0.2l-0.2-0.4c-1.5-2.2-2.9-3.7-4.5-4.6c-2.3-1.2-4.7-0.7-6.6,1.4
			c-2.4,2.8-3.2,8.1,0.2,12.7l0.2,0.3l-0.3,0.3c-1.8,1.9-2.7,4.2-2.5,6.6c0.2,2.4,1.5,4.8,3.7,6.6l0.5,0.4l-0.5,0.4
			c-3.7,3-4.8,8.1-2.5,12C49.7,48.3,50.6,48.1,51.5,48.1z M38.4,49.8L38,49.7c-1.7-0.7-3.6-0.7-5.1,0l-0.3,0.1l-0.2-0.2
			c-1.3-0.9-2.7-1.2-4-0.8L28,48.9l-0.1-0.5c-1.1-3.9-4.3-5.8-8.4-4.8l-0.6,0.1v-0.6c0-0.8-0.1-1.8-0.7-2.7l-0.5-0.7l0.9-0.1
			c1.6-0.1,3.1-0.8,4.2-1.9l0.4-0.4l0.4,0.5c1.6,2.1,4.3,2.5,6.6,1.1l0.5-0.3l0.2,0.5c0.6,1.2,1.4,2.1,2.5,2.6
			c0.1-0.2,0.2-0.4,0.3-0.6c0,0,0-0.1,0.1-0.1c-1.4-0.8-2.4-2.3-2.5-4c-0.2-1.7,0.5-3.3,1.8-4.4c-0.1-0.1-0.2-0.3-0.3-0.4
			c-0.1-0.1-0.2-0.2-0.2-0.4c-1.6,1.3-2.4,3.4-2.2,5.5l0,0.3L30,37.6c-1.1,0.9-2.4,1.3-3.5,1.1c-1.1-0.2-2.1-0.9-2.7-1.9l-0.2-0.2
			l0.1-0.3c0.6-1.1,0.7-2.3,0.5-3.5l-0.1-0.4l0.3-0.2c2.5-1.5,2.7-4.7,1.6-7l-0.3-0.7l0.8,0c3.5-0.1,5.8-2.3,6.1-5.7l0-0.3l0.3-0.1
			c1.4-0.5,2.6-1.7,3.2-3.2c-0.3-0.1-0.5-0.1-0.8-0.2c-0.4,1.3-1.4,2.2-2.7,2.5c-1.6,0.4-3.4-0.2-4.6-1.4c-0.1,0.1-0.2,0.2-0.3,0.3
			c-0.1,0.1-0.2,0.2-0.3,0.3c1.1,1.1,2.5,1.8,4,1.9l0.5,0l-0.1,0.5c-0.3,2.2-1.5,3.8-3.4,4.4c-2.5,0.8-6.1-0.4-8.2-2.7
			c-1.7-1.8-2.1-4.1-1.3-6.1c0.5-1.3,1.4-2.3,2.6-2.8c1.1-0.5,2.3-0.5,3.6-0.1c2.6-3.7,5.6-5.7,8.4-5.4c2.2,0.2,4.2,1.8,5.3,4.3
			c1.6,3.6,1.1,8.1-1.4,11.5c1.8,2.2,2.7,4.7,2.5,7.3c-0.2,2.5-1.4,4.9-3.4,6.7c3.8,3.5,4.7,9.1,2.1,13.3L38.4,49.8z M29.5,47.6
			c1.1,0,2.2,0.3,3.3,1c1.6-0.7,3.5-0.7,5.2,0c2.2-3.8,1.2-8.9-2.5-12L35,36.2l0.5-0.4c2.1-1.7,3.3-4,3.5-6.4
			c0.2-2.4-0.7-4.9-2.6-6.9l-0.3-0.3l0.2-0.3C39.3,18,39,13.6,37.9,11c-1-2.2-2.6-3.5-4.5-3.7c-2.5-0.2-5.2,1.7-7.7,5.3L25.5,13
			l-0.4-0.1c-1.1-0.4-2.2-0.4-3.2,0c-0.9,0.4-1.7,1.2-2.1,2.2l0,0c-1,2.3,0.3,4.1,1.1,5c1.9,2,5,3.1,7.2,2.5c1.4-0.4,2.2-1.5,2.6-3
			c-1.7-0.2-3.3-1.1-4.5-2.5l-0.3-0.4l0.3-0.3c0.3-0.3,0.5-0.5,0.7-0.7c0.2-0.2,0.4-0.4,0.7-0.6l0.4-0.4l0.4,0.4
			c1.1,1.2,2.6,1.8,4,1.5c1.1-0.3,1.9-1.1,2.1-2.3l0.1-0.5l0.5,0.2c0.6,0.2,1.2,0.4,1.7,0.5l0.5,0.1L37.3,15c-0.5,1.9-2,3.5-3.7,4.2
			c-0.4,3.6-2.8,5.9-6.3,6.3c0.9,2.5,0.5,5.6-2,7.4c0.2,1.2,0,2.4-0.5,3.5c0.5,0.7,1.1,1.1,1.9,1.2c0.8,0.1,1.7-0.1,2.5-0.7
			c-0.2-2.6,1-5.1,3-6.5l0.5-0.3l0.3,0.5c0.1,0.3,0.3,0.5,0.5,0.7c0.2,0.3,0.4,0.5,0.5,0.9l0.2,0.4l-0.4,0.2
			c-1.3,0.9-1.9,2.3-1.8,3.8c0.1,1.5,1.1,2.9,2.4,3.4l0.4,0.2l-0.2,0.5c-0.1,0.2-0.2,0.4-0.3,0.6c-0.2,0.3-0.3,0.7-0.4,1.1L33.8,43
			l-0.5-0.2c-1.3-0.6-2.4-1.6-3.2-2.9c-2.5,1.3-5.3,0.8-7.1-1.1c-1,0.9-2.3,1.6-3.7,1.8c0.3,0.7,0.4,1.4,0.5,2
			c4.2-0.7,7.6,1.2,8.9,5.2C28.9,47.7,29.2,47.6,29.5,47.6z M9.4,39.4l-0.3-0.3c-1.7-2-2-4.7-0.8-7.1c1.1-2.3,3.2-3.9,5.6-4.2
			c-1.3-1.8-1.7-4.4-1-6.3c0.7-1.9,2.3-3.1,4.5-3.3l0.4,0l0.1,0.4c1.1,2.8,3,4.6,6.2,5.8l0.1,0.1c1.5,1.2,2.1,3.2,1.4,5
			c-0.5,1.4-1.5,2.3-2.8,2.6c0.6,0.9,0.9,1.8,0.8,2.7c-0.2,1.2-0.9,2.2-2.3,3.1c-2.5,1.5-4.1,1.1-5.7,0.7c-1.6-0.4-3.2-0.7-5.8,0.7
			L9.4,39.4z M14.8,28.8c-2.3,0-4.5,1.4-5.6,3.7c-0.9,1.9-0.8,4,0.5,5.7c2.7-1.3,4.5-0.9,6.1-0.6c1.5,0.3,2.9,0.6,5-0.6
			c0.7-0.5,1.7-1.3,1.8-2.3c0.1-0.9-0.3-1.8-1.1-2.7l-0.8-0.9l1.2,0c1.4,0,2.4-0.7,2.8-2c0.4-1.2,0.3-2.8-1-3.9
			c-3.3-1.3-5.3-3.1-6.6-6c-2,0.4-2.9,1.6-3.3,2.6c-0.7,1.9-0.1,4.5,1.4,6.1l0.8,0.9l-1.2,0C14.9,28.8,14.8,28.8,14.8,28.8z
			 M77.3,39.3L77,39.1c-1.3-0.7-3-1.6-6.1-0.7c-2.5,0.8-5.9-0.3-7.2-2.3c-0.5-0.8-1.1-2.3,0.2-4.3c-1.3-0.3-2.3-1.1-2.8-2.4
			c-0.7-1.8-0.2-3.9,1.3-5.2l0.2-0.1c2.4-0.8,4.9-2.1,6.2-5.8l0.1-0.4l0.4,0.1c2.2,0.3,3.8,1.5,4.4,3.3c0.7,2,0.3,4.5-0.9,6.4
			c2.4,0.3,4.6,1.9,5.7,4.2c1.1,2.4,0.8,5-0.9,7L77.3,39.3z M73.4,37.1c1.7,0,2.8,0.5,3.7,1c1.2-1.6,1.4-3.7,0.5-5.6
			c-1.1-2.3-3.3-3.7-5.7-3.7l-1.2,0l0.8-0.9c1.5-1.7,2.1-4.3,1.3-6.2c-0.4-1-1.2-2.2-3.3-2.6c-1.5,3.7-4.1,5.1-6.6,6
			c-1.1,1-1.5,2.6-0.9,4c0.5,1.2,1.5,1.9,2.8,1.9l1.2,0l-0.8,0.9c-1.2,1.3-1.4,2.7-0.7,3.8c1.1,1.7,4,2.6,6,1.9
			C71.6,37.2,72.6,37.1,73.4,37.1z"/>
	</g>
	<g class="st1">
		<path class="st0" d="M111.2,45.9c0.3,0,0.6,0.2,0.9,0.6c0.3,0.4,0.4,0.8,0.4,1.3c0,0.6-0.2,1.2-0.5,1.9s-0.8,1.3-1.2,1.7
			c-0.3,0.3-0.5,0.5-0.5,0.6c0,0,0,0.2,0,0.5c0,0.3,0.1,0.5,0.1,0.8c0,1.6-0.5,3-1.6,4.1c-1,1-2.2,1.7-3.8,2.3
			c-1.5,0.5-3.2,0.8-5.1,0.8c-0.4,0-0.9,0-1.3-0.1c-0.4,0-0.6-0.1-0.8-0.1c-0.7,0-1.1,0.4-1.1,1.1c0,0.5,0.2,0.8,0.7,1.1
			s1.1,0.4,1.9,0.4c0.5,0,1.3-0.1,2.4-0.2c2.2-0.3,3.9-0.5,4.9-0.5c1.6,0,2.8,0.3,3.7,0.8c0.7,0.4,1.3,1,1.7,1.7
			c0.4,0.7,0.6,1.5,0.6,2.4c0,1.4-0.5,2.7-1.5,4c-1.2,1.5-2.9,2.6-5.3,3.4c-1.8,0.6-3.9,0.9-6.3,0.9c-3,0-5.4-0.5-7.3-1.4
			c-0.9-0.4-1.6-1-2.1-1.7c-0.5-0.7-0.8-1.4-0.8-2.2c0-0.5,0.1-1,0.4-1.5c0.3-0.4,0.7-0.8,1.1-1c0.4-0.2,0.6-0.3,0.6-0.5
			c0-0.1-0.2-0.4-0.5-0.6c-1.1-0.9-1.6-1.8-1.6-2.8c0-0.6,0.3-1.3,0.8-2s1.2-1.2,1.9-1.6c0.3-0.2,0.5-0.3,0.5-0.5
			c0-0.2-0.2-0.5-0.6-0.9C90.7,57.2,90,55.7,90,54c0-0.9,0.2-1.8,0.7-2.6c0.5-0.8,1.2-1.5,2.1-2.1c2.2-1.4,4.6-2.1,7.2-2.1
			c1.1,0,2.2,0.1,3.5,0.4c1.2,0.2,2.1,0.4,2.5,0.4c1.5,0,2.9-0.6,4.4-1.7C110.8,46,111,45.9,111.2,45.9z M95.8,68.5
			c-0.3,0-0.5,0.2-0.5,0.6c0,0.8,0.4,1.4,1.3,1.9c0.9,0.5,2,0.7,3.4,0.7c1.3,0,2.4-0.2,3.1-0.5c0.8-0.4,1.1-0.8,1.1-1.5
			c0-0.3-0.1-0.6-0.4-0.9s-0.6-0.4-1.1-0.4c-0.2,0-0.5,0-0.9,0.1c-0.8,0.1-1.6,0.2-2.5,0.2c-0.7,0-1.4,0-2-0.1
			c-0.5,0-0.9-0.1-1.2-0.2C95.9,68.5,95.8,68.5,95.8,68.5z M100.2,50.1c-0.7,0-1.2,0.3-1.6,0.8c-0.4,0.5-0.6,1.2-0.6,2
			c0,1.5,0.2,2.6,0.7,3.5c0.4,0.9,1,1.3,1.8,1.3c0.7,0,1.3-0.3,1.7-0.8c0.4-0.5,0.6-1.3,0.6-2.2c0-1.4-0.2-2.6-0.7-3.4
			C101.6,50.5,101,50.1,100.2,50.1z"/>
		<path class="st0" d="M125.1,46.9c2.4,0,4.3,0.6,6,1.8c0.9,0.6,1.5,1.4,1.8,2.2c0.3,0.8,0.5,1.9,0.5,3.4l0,3c0,2.1,0.1,3.5,0.4,4.1
			c0.1,0.3,0.3,0.5,0.4,0.6c0.1,0.1,0.4,0.2,0.9,0.2c0.4,0.1,0.6,0.4,0.6,0.9c0,0.6-0.3,1.3-0.8,2c-0.5,0.7-1.2,1.3-2,1.8
			c-1,0.6-2.1,0.9-3.2,0.9c-1.4,0-2.5-0.5-3.4-1.5c-0.3-0.4-0.5-0.5-0.8-0.5c-0.3,0-0.6,0.2-1.1,0.5c-1.4,1-2.9,1.5-4.6,1.5
			c-1.8,0-3.2-0.4-4.3-1.1c-0.7-0.5-1.3-1.2-1.7-2s-0.6-1.6-0.6-2.5c0-1.4,0.6-2.6,1.7-3.7c1.8-1.7,4.4-2.6,8-2.6
			c0.8,0,1.3-0.1,1.5-0.2c0.2-0.2,0.3-0.5,0.3-1.1c0-1.4-0.1-2.5-0.4-3.1c-0.3-0.6-0.8-1-1.5-1c-0.4,0-0.8,0.1-1.1,0.4
			c-0.3,0.2-0.7,0.7-1.2,1.3c-1.2,1.7-2.5,2.6-3.8,2.6c-0.7,0-1.2-0.2-1.6-0.6c-0.4-0.4-0.6-0.9-0.6-1.5c0-0.6,0.3-1.3,0.8-1.9
			c0.5-0.6,1.2-1.2,2.1-1.7C119.9,47.6,122.4,46.9,125.1,46.9z M123.7,58.7c-0.6,0-1.1,0.2-1.6,0.7s-0.7,1.1-0.7,1.7
			c0,0.6,0.2,1.2,0.5,1.6c0.3,0.4,0.7,0.6,1.2,0.6c1.1,0,1.6-0.9,1.6-2.7c0-0.7-0.1-1.2-0.2-1.5S124.2,58.7,123.7,58.7z"/>
		<path class="st0" d="M146.9,47.1c0.8,0,1.2,0.5,1.2,1.6c0,0,0,0.1,0,0.3c0,0.2,0,0.4,0,0.5c0,0.7,0.2,1.1,0.6,1.1
			c0.2,0,0.6-0.3,1.1-0.9c0.7-0.8,1.6-1.5,2.8-2c1.1-0.5,2.2-0.7,3.4-0.7c2.3,0,3.8,0.8,4.7,2.5c0.3,0.6,0.6,0.9,0.8,0.9
			c0.1,0,0.5-0.3,1.1-0.8c1.8-1.7,3.8-2.6,6-2.6c1.7,0,3.2,0.5,4.3,1.4c1.2,1,1.7,2.5,1.7,4.5c0,0.4,0,1.2,0,2.2c0,0.4,0,1.4,0,3.2
			c0,1.1,0,1.9,0,2.4c0,0.3,0,0.5,0,0.6c0,0.9,0.3,1.6,0.8,2.3c0.3,0.4,0.5,0.7,0.6,0.8c0.1,0.1,0.1,0.3,0.1,0.5
			c0,1.7-2,2.6-6.1,2.6c-1.8,0-3.2-0.2-4.3-0.6c-1.1-0.4-1.7-1-1.7-1.7c0-0.3,0-0.5,0.1-0.6c0.1-0.1,0.3-0.5,0.8-1.1
			c0.4-0.6,0.6-2.4,0.6-5.5c0-1.8-0.1-3.1-0.4-3.8c-0.3-0.9-0.9-1.3-1.8-1.3c-0.4,0-0.8,0.1-1.2,0.4s-0.6,0.6-0.7,1
			c-0.1,0.5-0.2,1.8-0.2,3.9c0,2.3,0.1,3.7,0.2,4.1c0.1,0.5,0.4,1.2,1,2c0.1,0.2,0.2,0.5,0.2,0.8c0,1.6-2.1,2.4-6.3,2.4
			c-2.5,0-4.2-0.2-5.1-0.6c-0.7-0.3-1.1-0.8-1.1-1.6c0-0.3,0-0.6,0.1-0.7c0.1-0.1,0.4-0.4,0.9-0.9c0.3-0.3,0.5-0.6,0.6-0.8
			s0.2-0.7,0.2-1.4c0.1-1.5,0.1-3,0.1-4.5c0-2.6-0.7-4-2-4c-1,0-1.6,0.6-1.8,1.7c-0.2,1.1-0.2,2.6-0.2,4.6c0,1.5,0,2.5,0.1,2.9
			c0.1,0.5,0.2,0.9,0.5,1.4c0.3,0.6,0.5,1.1,0.5,1.4c0,0.9-0.6,1.5-1.8,1.8c-1.3,0.4-2.8,0.5-4.4,0.5c-2.1,0-3.6-0.2-4.6-0.5
			c-1-0.3-1.5-0.9-1.5-1.6c0-0.3,0.1-0.5,0.2-0.7c0.1-0.2,0.4-0.5,0.9-0.9c0.6-0.6,1-1.3,1.1-2.3c0.1-1.7,0.2-3.4,0.2-5.2
			c0-1.3-0.1-2.2-0.2-2.7c-0.1-0.5-0.4-0.9-0.8-1.2c-0.4-0.3-0.7-0.5-0.8-0.7c-0.1-0.2-0.2-0.4-0.2-0.7c0-0.9,0.7-1.6,2.1-2.1
			C142.6,47.7,145.2,47.1,146.9,47.1z"/>
		<path class="st0" d="M195.9,58.1h-9.5c-0.4,0-0.6,0.2-0.6,0.5c0,0.9,0.5,1.7,1.4,2.5s2,1.2,3.1,1.2c0.7,0,1.4-0.1,2.2-0.4
			s1.4-0.6,2-0.9c0.5-0.3,0.8-0.5,1.1-0.5c0.4,0,0.7,0.2,1,0.6s0.5,0.9,0.5,1.3c0,1-0.6,1.9-1.8,2.8c-2.1,1.6-4.6,2.4-7.4,2.4
			c-2.8,0-5.2-0.8-7.1-2.5c-0.9-0.8-1.7-1.8-2.3-2.9c-0.8-1.5-1.2-3.1-1.2-4.8c0-2.3,0.7-4.3,2.1-6.1c1.2-1.6,2.7-2.7,4.5-3.5
			c1.4-0.6,2.9-0.9,4.5-0.9c2.6,0,4.8,0.7,6.6,2.2c0.9,0.7,1.6,1.6,2.2,2.6c0.6,1.1,1,2.2,1,3.3c0,0.9-0.2,1.6-0.5,2.2
			C196.9,57.8,196.4,58.1,195.9,58.1z M186.9,54.3h2c0.9,0,1.3-0.4,1.3-1.2c0-0.7-0.2-1.3-0.6-1.8c-0.4-0.5-1-0.7-1.6-0.7
			c-0.8,0-1.4,0.3-1.8,0.9c-0.4,0.6-0.6,1.1-0.6,1.7c0,0.4,0.1,0.7,0.3,0.9C186,54.2,186.4,54.3,186.9,54.3z"/>
	</g>
	<g class="st1">
		<path class="st0" d="M99.5,18.6c0.8,0,1.2,0.5,1.2,1.6c0,0,0,0.1,0,0.3c0,0.2,0,0.4,0,0.5c0,0.7,0.2,1.1,0.6,1.1
			c0.2,0,0.6-0.3,1.1-0.9c0.7-0.8,1.6-1.5,2.8-2c1.1-0.5,2.2-0.7,3.4-0.7c2.3,0,3.8,0.8,4.7,2.5c0.3,0.6,0.6,0.9,0.8,0.9
			c0.1,0,0.5-0.3,1.1-0.8c1.8-1.7,3.8-2.6,6-2.6c1.7,0,3.2,0.5,4.3,1.4c1.2,1,1.7,2.5,1.7,4.5c0,0.4,0,1.2,0,2.2c0,0.4,0,1.4,0,3.2
			c0,1.1,0,1.9,0,2.4c0,0.3,0,0.5,0,0.6c0,0.9,0.3,1.6,0.8,2.3c0.3,0.4,0.5,0.7,0.6,0.8c0.1,0.1,0.1,0.3,0.1,0.5
			c0,1.7-2,2.6-6.1,2.6c-1.8,0-3.2-0.2-4.4-0.6c-1.1-0.4-1.7-1-1.7-1.7c0-0.3,0-0.5,0.1-0.6c0.1-0.1,0.3-0.5,0.8-1.1
			c0.4-0.6,0.6-2.4,0.6-5.5c0-1.8-0.1-3.1-0.4-3.8c-0.3-0.9-0.9-1.3-1.8-1.3c-0.4,0-0.8,0.1-1.2,0.4s-0.6,0.6-0.7,1
			c-0.1,0.5-0.2,1.8-0.2,3.9c0,2.3,0.1,3.7,0.2,4.1c0.1,0.5,0.4,1.2,1,2c0.1,0.2,0.2,0.5,0.2,0.8c0,1.6-2.1,2.4-6.3,2.4
			c-2.5,0-4.2-0.2-5.1-0.6c-0.7-0.3-1.1-0.8-1.1-1.6c0-0.3,0-0.6,0.1-0.7c0.1-0.1,0.4-0.4,0.9-0.9c0.3-0.3,0.5-0.6,0.6-0.8
			c0.1-0.3,0.2-0.7,0.2-1.4c0.1-1.5,0.1-3,0.1-4.5c0-2.6-0.7-4-2-4c-1,0-1.6,0.6-1.8,1.7c-0.2,1.1-0.2,2.6-0.2,4.6
			c0,1.5,0,2.5,0.1,2.9c0.1,0.5,0.2,0.9,0.5,1.4c0.3,0.6,0.5,1.1,0.5,1.4c0,0.9-0.6,1.5-1.8,1.8c-1.3,0.4-2.8,0.5-4.4,0.5
			c-2.1,0-3.6-0.2-4.6-0.5c-1-0.3-1.5-0.9-1.5-1.6c0-0.3,0.1-0.5,0.2-0.7s0.4-0.5,0.9-0.9c0.6-0.6,1-1.3,1.1-2.3
			c0.1-1.7,0.2-3.4,0.2-5.2c0-1.3-0.1-2.2-0.2-2.7S91,24.3,90.6,24c-0.4-0.3-0.7-0.5-0.8-0.7c-0.1-0.2-0.2-0.4-0.2-0.7
			c0-0.9,0.7-1.6,2.1-2.1C95.2,19.3,97.8,18.7,99.5,18.6z"/>
		<path class="st0" d="M141,19.9v11.8c0,0.9,0.1,1.6,0.3,2s0.5,0.8,1,1.2c0.4,0.3,0.7,0.6,0.8,0.8c0.1,0.2,0.2,0.5,0.2,0.8
			c0,1.7-2.2,2.6-6.6,2.6c-2.4,0-4.3-0.2-5.7-0.6c-0.5-0.1-0.9-0.4-1.1-0.7c-0.3-0.3-0.4-0.7-0.4-1.2c0-0.4,0.1-0.6,0.2-0.9
			c0.1-0.2,0.5-0.5,1.1-1c0.4-0.3,0.7-0.8,0.9-1.5s0.3-1.8,0.3-3.1c0-0.4,0-1.3-0.1-2.5c-0.1-1.2-0.1-1.9-0.1-2.1
			c-0.1-0.6-0.5-1-1.1-1.3c-0.8-0.4-1.3-0.9-1.3-1.6c0-0.9,0.5-1.5,1.6-1.9c1.5-0.6,3.1-1.1,4.9-1.5c1.7-0.4,3.1-0.6,4-0.6
			C140.6,18.6,141,19.1,141,19.9z M137,11c1.2,0,2.1,0.2,2.8,0.7s1,1,1,1.8c0,1-0.5,1.9-1.6,2.5c-1.6,1-3.6,1.4-6,1.4
			c-1,0-1.8-0.2-2.4-0.6c-0.8-0.5-1.2-1.2-1.2-2c0-1.2,0.8-2.1,2.5-2.7C133.9,11.4,135.5,11,137,11z"/>
		<path class="st0" d="M169.1,26l0.3,7.1c0,0.5,0.1,0.9,0.3,1.2c0.1,0.3,0.6,0.8,1.2,1.5c0.2,0.2,0.3,0.5,0.3,0.9
			c0,0.9-0.5,1.5-1.6,1.9c-1.1,0.4-3,0.5-5.7,0.5c-1.9,0-3.2-0.2-4-0.5c-0.8-0.3-1.2-0.9-1.2-1.6c0-0.3,0-0.5,0.1-0.6
			c0.1-0.1,0.4-0.4,0.8-0.9c0.5-0.6,0.8-2.5,0.8-5.7c0-1.9-0.2-3.2-0.6-4.1c-0.4-0.7-1-1.1-1.9-1.1c-0.9,0-1.5,0.3-1.9,0.9
			c-0.3,0.6-0.5,1.6-0.5,3.2v4c0,0.8,0.1,1.3,0.2,1.6c0.1,0.3,0.4,0.9,1,1.7c0.1,0.2,0.2,0.5,0.2,0.8c0,0.8-0.6,1.4-1.7,1.8
			c-1.1,0.4-2.8,0.6-5.2,0.6c-3.8,0-5.6-0.8-5.6-2.3c0-0.3,0.1-0.6,0.2-0.7c0.1-0.2,0.4-0.4,0.8-0.7c0.4-0.3,0.6-0.6,0.7-0.9
			c0.1-0.3,0.2-1.1,0.3-2.4c0.1-1.5,0.1-3.2,0.1-4.8c0-0.9-0.1-1.5-0.2-1.8c-0.1-0.3-0.6-0.6-1.2-1.1c-0.6-0.4-0.9-0.8-0.9-1.3
			c0-0.5,0.2-1,0.7-1.3c0.5-0.3,1.4-0.8,2.9-1.3c1.3-0.5,2.5-0.8,3.8-1.2c1.2-0.3,2-0.5,2.5-0.5c0.4,0,0.7,0.1,1,0.4
			c0.3,0.3,0.4,0.6,0.4,1.1c0,0,0,0.2,0,0.5c0,0.1,0,0.2,0,0.3c0,0.6,0.3,1,0.8,1c0.3,0,0.7-0.3,1-0.8c1.2-1.7,2.9-2.5,5.1-2.5
			c1.7,0,3.2,0.4,4.4,1.3c0.9,0.6,1.4,1.4,1.8,2.2C168.8,23.1,169,24.3,169.1,26z"/>
		<path class="st0" d="M196.1,12.6v18.5c0,1.1,0,1.7,0.1,2c0.1,0.3,0.3,0.6,0.7,0.9c0.5,0.3,0.8,0.6,1,0.9s0.3,0.6,0.3,0.9
			c0,1.1-1.1,1.9-3.3,2.5c-2,0.5-3.9,0.8-5.9,0.8c-0.4,0-0.7-0.1-0.8-0.2c-0.1-0.1-0.2-0.4-0.3-0.9c-0.1-0.7-0.3-1-0.7-1
			c-0.2,0-0.6,0.2-1.1,0.6c-1.4,1.1-2.9,1.7-4.6,1.7c-2.1,0-4-0.8-5.7-2.3c-1-0.9-1.8-2-2.4-3.2c-0.8-1.6-1.2-3.2-1.2-4.8
			c0-1.9,0.5-3.7,1.6-5.5c1-1.6,2.3-2.9,4-3.8c1.4-0.7,2.8-1.1,4.2-1.1c1.6,0,3,0.4,4.2,1.1c0.2,0.1,0.4,0.2,0.5,0.2
			c0.4,0,0.6-0.6,0.6-1.7c0-0.5-0.1-0.9-0.4-1.1c-0.2-0.3-0.7-0.5-1.3-0.7c-0.9-0.3-1.3-0.7-1.3-1.4c0-1,1-1.8,2.9-2.3
			c3.5-1,5.8-1.4,7-1.4C195.5,11,196.1,11.5,196.1,12.6z M185.1,22.8c-0.9,0-1.6,0.5-2.1,1.4c-0.7,1.2-1,2.9-1,4.9
			c0,1.8,0.3,3.2,1,4.2c0.5,0.7,1.1,1,1.9,1c0.9,0,1.5-0.5,1.9-1.5c0.4-1,0.6-2.7,0.6-4.9c0-2.1-0.2-3.5-0.7-4.2
			C186.3,23.2,185.8,22.9,185.1,22.8z"/>
	</g>
	<g>
		<rect x="86.8" y="79.6" class="st0" width="113.1" height="7"/>
		<path class="st0" d="M200.4,87.1H86.3v-8h114.1V87.1z M87.3,86.1h112.1v-6H87.3V86.1z"/>
	</g>
	<g>
		<rect x="86.8" class="st0" width="113.1" height="7"/>
		<path class="st0" d="M200.4,7.5H86.3v-8h114.1V7.5z M87.3,6.5h112.1v-6H87.3V6.5z"/>
	</g>
</g>
</svg>
